<svg width="120" height="120" viewBox="0 0 120 120" fill="none" xmlns="http://www.w3.org/2000/svg">
<g clip-path="url(#clip0_346_2396)">
<path d="M56.002 2.3094C58.4772 0.880338 61.5267 0.880339 64.002 2.3094L107.963 27.6906C110.439 29.1197 111.963 31.7607 111.963 34.6188V85.3812C111.963 88.2393 110.439 90.8803 107.963 92.3094L64.0019 117.691C61.5267 119.12 58.4772 119.12 56.002 117.691L12.0404 92.3094C9.56522 90.8803 8.04043 88.2393 8.04043 85.3812V34.6188C8.04043 31.7607 9.56522 29.1197 12.0404 27.6906L56.002 2.3094Z" fill="#20A3E2"/>
<g clip-path="url(#clip1_346_2396)">
<path d="M36.377 63.3752V64.2487V66.7502V67.6698H41.1857C41.6624 69.7906 42.4941 71.8175 43.6444 73.6617L40.2595 77.0402L46.3372 83.1177L49.7253 79.7264C51.566 80.882 53.5885 81.715 55.7074 82.1981V87.0002H64.2965V82.1915C66.4173 81.7148 68.4441 80.8865 70.2885 79.7361L73.6667 83.1177L79.7444 77.0402L76.3529 73.6519C77.5083 71.8113 78.3453 69.7888 78.8281 67.6698H83.627V66.7502V64.2487V63.3752H71.8145C71.8145 66.5081 70.5699 69.5126 68.3546 71.7279C66.1394 73.9431 63.1348 75.1877 60.002 75.1877C56.8691 75.1877 53.8645 73.9431 51.6493 71.7279C49.434 69.5126 48.1895 66.5081 48.1895 63.3752H36.377Z" fill="white"/>
<path d="M38.0645 54.9377H81.9394C82.8743 54.9377 83.627 55.6904 83.627 56.6252V58.3127C83.627 59.2476 82.8743 60.0002 81.9394 60.0002H38.0645C37.1296 60.0002 36.377 59.2476 36.377 58.3127V56.6252C36.377 55.6904 37.1296 54.9377 38.0645 54.9377Z" fill="white"/>
<path d="M40.4759 55.5795C40.4003 52.1418 41.2384 48.7457 42.9046 45.7369C44.5708 42.7281 47.0057 40.2144 49.9612 38.4517C52.9166 36.6891 56.287 35.7407 59.7289 35.703C63.1708 35.6652 66.5612 36.5395 69.5547 38.2369C72.5481 39.9343 75.0376 42.3942 76.7696 45.3657C78.5015 48.3372 79.414 51.7142 79.414 55.1527" fill="white"/>
<path d="M54.9395 44.0252V33.0002H65.0645V44.0252" fill="white"/>
<path fill-rule="evenodd" clip-rule="evenodd" d="M59.0989 32.9988V38.0613H60.7864V32.9988H59.0989ZM54.9395 36.3719C54.3692 36.5221 53.8062 36.6981 53.252 36.8993V43.1252H54.9395V36.3719ZM65.0645 36.3917V43.1252H66.752V36.9355C66.198 36.7288 65.6349 36.5472 65.0645 36.3917Z" fill="#20A3E2"/>
<path d="M40.5794 53.2502C40.5264 53.8112 40.4977 54.3743 40.4937 54.9377H79.4084C79.3955 54.3739 79.3581 53.8109 79.2963 53.2502H40.5794Z" fill="#20A3E2"/>
</g>
</g>
<defs>
<clipPath id="clip0_346_2396">
<rect x="0.172852" width="119.658" height="120" rx="16" fill="white"/>
</clipPath>
<clipPath id="clip1_346_2396">
<rect width="54" height="54" fill="white" transform="translate(33.002 33)"/>
</clipPath>
</defs>
</svg>
