<svg width="72" height="72" viewBox="0 0 72 72" fill="none" xmlns="http://www.w3.org/2000/svg">
<circle cx="4" cy="4" r="4" fill="#20A3E2"/>
<circle cx="20" cy="4" r="4" fill="#20A3E2"/>
<circle cx="36" cy="4" r="4" fill="#20A3E2"/>
<circle cx="52" cy="4" r="4" fill="#20A3E2"/>
<circle cx="68" cy="4" r="4" fill="#20A3E2"/>
<circle cx="4" cy="20" r="4" fill="#20A3E2"/>
<circle cx="20" cy="20" r="4" fill="#20A3E2"/>
<circle cx="36" cy="20" r="4" fill="#20A3E2"/>
<circle cx="52" cy="20" r="4" fill="#20A3E2"/>
<circle cx="68" cy="20" r="4" fill="#20A3E2"/>
<circle cx="4" cy="36" r="4" fill="#20A3E2"/>
<circle cx="20" cy="36" r="4" fill="#20A3E2"/>
<circle cx="36" cy="36" r="4" fill="#20A3E2"/>
<circle cx="52" cy="36" r="4" fill="#20A3E2"/>
<circle cx="68" cy="36" r="4" fill="#20A3E2"/>
<circle cx="4" cy="52" r="4" fill="#20A3E2"/>
<circle cx="20" cy="52" r="4" fill="#20A3E2"/>
<circle cx="36" cy="52" r="4" fill="#20A3E2"/>
<circle cx="52" cy="52" r="4" fill="#20A3E2"/>
<circle cx="68" cy="52" r="4" fill="#20A3E2"/>
<circle cx="4" cy="68" r="4" fill="#20A3E2"/>
<circle cx="20" cy="68" r="4" fill="#20A3E2"/>
<circle cx="36" cy="68" r="4" fill="#20A3E2"/>
<circle cx="52" cy="68" r="4" fill="#20A3E2"/>
<circle cx="68" cy="68" r="4" fill="#20A3E2"/>
</svg>
