<svg width="41" height="40" viewBox="0 0 41 40" fill="none" xmlns="http://www.w3.org/2000/svg">
<path d="M7.5 7H34.5C34.8978 7 35.2794 7.15804 35.5607 7.43934C35.842 7.72064 36 8.10218 36 8.5V32.5C36 32.8978 35.842 33.2794 35.5607 33.5607C35.2794 33.842 34.8978 34 34.5 34H7.5C7.10218 34 6.72064 33.842 6.43934 33.5607C6.15804 33.2794 6 32.8978 6 32.5V8.5C6 8.10218 6.15804 7.72064 6.43934 7.43934C6.72064 7.15804 7.10218 7 7.5 7ZM21.09 20.0245L11.472 11.857L9.5295 14.143L21.1095 23.9755L32.481 14.1355L30.519 11.866L21.0915 20.0245H21.09Z" fill="#20A3E2"/>
</svg>
