<svg width="120" height="120" viewBox="0 0 120 120" fill="none" xmlns="http://www.w3.org/2000/svg">
<g clip-path="url(#clip0_346_2460)">
<path d="M56.002 2.3094C58.4772 0.880338 61.5267 0.880339 64.002 2.3094L107.963 27.6906C110.439 29.1197 111.963 31.7607 111.963 34.6188V85.3812C111.963 88.2393 110.439 90.8803 107.963 92.3094L64.0019 117.691C61.5267 119.12 58.4772 119.12 56.002 117.691L12.0404 92.3094C9.56522 90.8803 8.04043 88.2393 8.04043 85.3812V34.6188C8.04043 31.7607 9.56522 29.1197 12.0404 27.6906L56.002 2.3094Z" fill="#20A3E2"/>
<path d="M43.3268 38.1775C44.8869 37.621 46.5729 37.5187 48.1889 37.8825C49.8049 38.2464 51.2844 39.0615 52.4554 40.233C53.6264 41.4046 54.4408 42.8844 54.8039 44.5005C55.1671 46.1167 55.064 47.8027 54.5068 49.3625L81.6193 76.475L76.3143 81.7775L49.2018 54.6675C47.6416 55.2241 45.9556 55.3264 44.3396 54.9625C42.7236 54.5987 41.2442 53.7836 40.0732 52.6121C38.9021 51.4405 38.0877 49.9607 37.7246 48.3446C37.3614 46.7284 37.4645 45.0424 38.0218 43.4825L43.6118 49.075C43.9577 49.4332 44.3715 49.7189 44.829 49.9154C45.2865 50.112 45.7786 50.2154 46.2765 50.2197C46.7744 50.2241 47.2682 50.1292 47.7291 49.9406C48.1899 49.7521 48.6086 49.4736 48.9607 49.1215C49.3128 48.7694 49.5913 48.3507 49.7798 47.8899C49.9684 47.429 50.0633 46.9352 50.0589 46.4373C50.0546 45.9394 49.9512 45.4473 49.7546 44.9898C49.5581 44.5323 49.2724 44.1185 48.9143 43.7725L43.3243 38.175L43.3268 38.1775ZM69.2443 42.8875L77.1993 38.4675L80.7343 42.0025L76.3143 49.9575L71.8943 50.8425L66.5943 56.145L63.0568 52.61L68.3593 47.3075L69.2443 42.8875ZM51.5668 62.3325L56.8693 67.6375L44.4943 80.0125C43.8119 80.6886 42.896 81.0769 41.9357 81.0976C40.9754 81.1182 40.0437 80.7696 39.3329 80.1235C38.6221 79.4775 38.1862 78.5832 38.1153 77.6253C38.0444 76.6674 38.3438 75.7187 38.9518 74.975L39.1943 74.7075L51.5693 62.3325H51.5668Z" fill="white"/>
</g>
<defs>
<clipPath id="clip0_346_2460">
<rect x="0.172852" width="119.658" height="120" rx="16" fill="white"/>
</clipPath>
</defs>
</svg>
