<svg width="41" height="40" viewBox="0 0 41 40" fill="none" xmlns="http://www.w3.org/2000/svg">
<path d="M29.2133 26.2131L20.4264 35L11.6396 26.2131C9.90171 24.4753 8.71823 22.2611 8.23876 19.8506C7.7593 17.4401 8.00539 14.9416 8.94592 12.671C9.88645 10.4004 11.4792 8.45964 13.5227 7.09422C15.5662 5.72879 17.9687 5 20.4264 5C22.8841 5 25.2866 5.72879 27.3301 7.09422C29.3736 8.45964 30.9664 10.4004 31.9069 12.671C32.8474 14.9416 33.0935 17.4401 32.6141 19.8506C32.1346 22.2611 30.9511 24.4753 29.2133 26.2131ZM20.4264 20.1877C21.1588 20.1877 21.8612 19.8968 22.379 19.3789C22.8969 18.8611 23.1878 18.1587 23.1878 17.4263C23.1878 16.6939 22.8969 15.9915 22.379 15.4737C21.8612 14.9558 21.1588 14.6649 20.4264 14.6649C19.694 14.6649 18.9917 14.9558 18.4738 15.4737C17.9559 15.9915 17.665 16.6939 17.665 17.4263C17.665 18.1587 17.9559 18.8611 18.4738 19.3789C18.9917 19.8968 19.694 20.1877 20.4264 20.1877Z" fill="#20A3E2"/>
</svg>
