<svg width="160" height="161" viewBox="0 0 160 161" fill="none" xmlns="http://www.w3.org/2000/svg">
<path d="M72 5.1188C76.9504 2.26068 83.0496 2.26068 88 5.1188L141.282 35.8812C146.232 38.7393 149.282 44.0214 149.282 49.7376V111.262C149.282 116.979 146.232 122.261 141.282 125.119L88 155.881C83.0496 158.739 76.9504 158.739 72 155.881L18.718 125.119C13.7675 122.261 10.718 116.979 10.718 111.262V49.7376C10.718 44.0214 13.7675 38.7393 18.718 35.8812L72 5.1188Z" fill="#20A3E2"/>
<path d="M79.8203 109C87.2464 109 94.3683 106.05 99.6193 100.799C104.87 95.548 107.82 88.4261 107.82 81C107.82 73.5739 104.87 66.452 99.6193 61.201C94.3683 55.95 87.2464 53 79.8203 53C72.3943 53 65.2723 55.95 60.0213 61.201C54.7703 66.452 51.8203 73.5739 51.8203 81C51.8203 88.4261 54.7703 95.548 60.0213 100.799C65.2723 106.05 72.3943 109 79.8203 109ZM79.8203 116C60.4898 116 44.8203 100.33 44.8203 81C44.8203 61.6695 60.4898 46 79.8203 46C99.1508 46 114.82 61.6695 114.82 81C114.82 100.33 99.1508 116 79.8203 116ZM79.8203 95C83.5333 95 87.0943 93.525 89.7198 90.8995C92.3453 88.274 93.8203 84.713 93.8203 81C93.8203 77.287 92.3453 73.726 89.7198 71.1005C87.0943 68.475 83.5333 67 79.8203 67C76.1073 67 72.5463 68.475 69.9208 71.1005C67.2953 73.726 65.8203 77.287 65.8203 81C65.8203 84.713 67.2953 88.274 69.9208 90.8995C72.5463 93.525 76.1073 95 79.8203 95ZM79.8203 102C74.2508 102 68.9093 99.7875 64.9711 95.8492C61.0328 91.911 58.8203 86.5695 58.8203 81C58.8203 75.4305 61.0328 70.089 64.9711 66.1508C68.9093 62.2125 74.2508 60 79.8203 60C85.3899 60 90.7313 62.2125 94.6696 66.1508C98.6078 70.089 100.82 75.4305 100.82 81C100.82 86.5695 98.6078 91.911 94.6696 95.8492C90.7313 99.7875 85.3899 102 79.8203 102ZM79.8203 88C77.9638 88 76.1833 87.2625 74.8706 85.9497C73.5578 84.637 72.8203 82.8565 72.8203 81C72.8203 79.1435 73.5578 77.363 74.8706 76.0503C76.1833 74.7375 77.9638 74 79.8203 74C81.6768 74 83.4573 74.7375 84.7701 76.0503C86.0828 77.363 86.8203 79.1435 86.8203 81C86.8203 82.8565 86.0828 84.637 84.7701 85.9497C83.4573 87.2625 81.6768 88 79.8203 88Z" fill="white"/>
</svg>
