<svg width="120" height="120" viewBox="0 0 120 120" fill="none" xmlns="http://www.w3.org/2000/svg">
<g clip-path="url(#clip0_346_2413)">
<path d="M56.002 2.3094C58.4772 0.880338 61.5267 0.880339 64.002 2.3094L107.963 27.6906C110.439 29.1197 111.963 31.7607 111.963 34.6188V85.3812C111.963 88.2393 110.439 90.8803 107.963 92.3094L64.0019 117.691C61.5267 119.12 58.4772 119.12 56.002 117.691L12.0404 92.3094C9.56522 90.8803 8.04043 88.2393 8.04043 85.3812V34.6188C8.04043 31.7607 9.56522 29.1197 12.0404 27.6906L56.002 2.3094Z" fill="#20A3E2"/>
<path d="M58.7916 72.7167C58.4926 70.9179 58.4926 69.0821 58.7916 67.2833C60.6283 67.3267 62.2783 66.4467 62.9199 64.8984C63.5616 63.3484 63.0166 61.5584 61.6866 60.2934C62.7473 58.8088 64.0459 57.5097 65.5299 56.4484C66.7966 57.7784 68.5866 58.3234 70.1366 57.6817C71.6866 57.04 72.5649 55.3884 72.5199 53.5534C74.3198 53.254 76.1567 53.254 77.9566 53.5534C77.9116 55.39 78.7916 57.04 80.3399 57.6817C81.8899 58.3234 83.6799 57.7784 84.9449 56.4484C86.4294 57.509 87.7286 58.8076 88.7899 60.2917C87.4599 61.5584 86.9149 63.3484 87.5566 64.8984C88.1983 66.4484 89.8499 67.3267 91.6849 67.2817C91.9843 69.0815 91.9843 70.9185 91.6849 72.7183C89.8483 72.6733 88.1983 73.5534 87.5566 75.1017C86.9149 76.6517 87.4599 78.4417 88.7899 79.7067C87.7292 81.1912 86.4307 82.4904 84.9466 83.5517C83.6799 82.2217 81.8899 81.6767 80.3399 82.3184C78.7899 82.96 77.9116 84.6117 77.9566 86.4467C76.1567 86.746 74.3198 86.746 72.5199 86.4467C72.5649 84.61 71.6849 82.96 70.1366 82.3184C68.5866 81.6767 66.7966 82.2217 65.5316 83.5517C64.0471 82.491 62.7479 81.1924 61.6866 79.7084C63.0166 78.4417 63.5616 76.6517 62.9199 75.1017C62.2783 73.5517 60.6266 72.6733 58.7916 72.7183V72.7167ZM75.2383 75C76.5643 75 77.8361 74.4732 78.7738 73.5356C79.7115 72.5979 80.2383 71.3261 80.2383 70C80.2383 68.6739 79.7115 67.4022 78.7738 66.4645C77.8361 65.5268 76.5643 65 75.2383 65C73.9122 65 72.6404 65.5268 71.7027 66.4645C70.765 67.4022 70.2383 68.6739 70.2383 70C70.2383 71.3261 70.765 72.5979 71.7027 73.5356C72.6404 74.4732 73.9122 75 75.2383 75Z" fill="white"/>
<path d="M46.904 47.0375C46.6798 45.6884 46.6798 44.3115 46.904 42.9625C48.2815 42.995 49.519 42.335 50.0003 41.1737C50.4815 40.0112 50.0728 38.6687 49.0753 37.72C49.8708 36.6066 50.8447 35.6322 51.9578 34.8362C52.9078 35.8337 54.2503 36.2425 55.4128 35.7612C56.5753 35.28 57.234 34.0412 57.2003 32.665C58.5501 32.4405 59.9279 32.4405 61.2778 32.665C61.244 34.0425 61.904 35.28 63.0653 35.7612C64.2278 36.2425 65.5702 35.8337 66.519 34.8362C67.6324 35.6317 68.6068 36.6057 69.4028 37.7187C68.4053 38.6687 67.9965 40.0112 68.4778 41.1737C68.959 42.3362 70.1978 42.995 71.574 42.9612C71.7985 44.3111 71.7985 45.6888 71.574 47.0387C70.1965 47.005 68.959 47.665 68.4778 48.8262C67.9965 49.9887 68.4053 51.3312 69.4028 52.28C68.6072 53.3933 67.6333 54.3677 66.5203 55.1637C65.5703 54.1662 64.2278 53.7575 63.0653 54.2387C61.9028 54.72 61.244 55.9587 61.2778 57.335C59.9279 57.5595 58.5501 57.5595 57.2003 57.335C57.234 55.9575 56.574 54.72 55.4128 54.2387C54.2503 53.7575 52.9078 54.1662 51.959 55.1637C50.8456 54.3682 49.8713 53.3943 49.0753 52.2812C50.0728 51.3312 50.4815 49.9887 50.0003 48.8262C49.519 47.6637 48.2803 47.005 46.904 47.0387V47.0375ZM59.239 48.75C60.2336 48.75 61.1874 48.3549 61.8907 47.6516C62.5939 46.9483 62.989 45.9945 62.989 45C62.989 44.0054 62.5939 43.0516 61.8907 42.3483C61.1874 41.645 60.2336 41.25 59.239 41.25C58.2444 41.25 57.2906 41.645 56.5874 42.3483C55.8841 43.0516 55.489 44.0054 55.489 45C55.489 45.9945 55.8841 46.9483 56.5874 47.6516C57.2906 48.3549 58.2444 48.75 59.239 48.75Z" fill="white"/>
<g clip-path="url(#clip1_346_2413)">
<path d="M33.3595 65.1029C33.7845 63.8031 34.4211 62.5823 35.2438 61.4898C36.4501 62.1555 37.8526 62.1425 38.8162 61.3354C39.7805 60.5272 40.0388 59.1478 39.5931 57.8454C40.8133 57.226 42.1274 56.8124 43.4824 56.6213C43.8635 57.945 44.8648 58.9282 46.1181 59.0391C47.3714 59.1499 48.5283 58.3561 49.1347 57.1202C50.4354 57.5454 51.657 58.1824 52.7501 59.0057C52.0832 60.2115 52.0962 61.6139 52.9033 62.5776C53.7116 63.5418 55.0909 63.8002 56.3934 63.3544C57.0128 64.5746 57.4264 65.8887 57.6175 67.2437C56.2937 67.6248 55.3105 68.6261 55.1997 69.8794C55.0889 71.1327 55.8826 72.2896 57.1185 72.896C56.6934 74.1968 56.0563 75.4183 55.2331 76.5114C54.0273 75.8446 52.6249 75.8575 51.6612 76.6647C50.697 77.4729 50.4386 78.8523 50.8844 80.1547C49.6642 80.7741 48.3501 81.1877 46.9951 81.3788C46.614 80.0551 45.6126 79.0719 44.3594 78.961C43.1061 78.8502 41.9492 79.644 41.3427 80.8799C40.042 80.4547 38.8204 79.8177 37.7273 78.9944C38.3942 77.7886 38.3812 76.3862 37.5741 75.4225C36.7659 74.4583 35.3865 74.1999 34.084 74.6457C33.4647 73.4255 33.0511 72.1114 32.86 70.7564C34.1837 70.3753 35.1669 69.374 35.2777 68.1207C35.3886 66.8674 34.5948 65.7105 33.3589 65.104L33.3595 65.1029ZM43.5047 72.3251C44.3866 72.7849 45.415 72.8757 46.3637 72.5773C47.3125 72.2789 48.1039 71.6159 48.5637 70.734C49.0236 69.8522 49.1144 68.8238 48.816 67.875C48.5176 66.9263 47.8546 66.1349 46.9727 65.675C46.0909 65.2151 45.0625 65.1244 44.1137 65.4228C43.165 65.7212 42.3736 66.3842 41.9137 67.266C41.4538 68.1479 41.3631 69.1763 41.6615 70.1251C41.9598 71.0738 42.6229 71.8652 43.5047 72.3251Z" fill="white"/>
</g>
</g>
<defs>
<clipPath id="clip0_346_2413">
<rect x="0.172852" width="119.658" height="120" rx="16" fill="white"/>
</clipPath>
<clipPath id="clip1_346_2413">
<rect width="30" height="30" fill="white" transform="translate(38.8745 48.7639) rotate(27.5421)"/>
</clipPath>
</defs>
</svg>
