<svg width="41" height="40" viewBox="0 0 41 40" fill="none" xmlns="http://www.w3.org/2000/svg">
<path d="M33 26.3844V31.492C33.0002 31.8577 32.8616 32.2099 32.6123 32.4774C32.363 32.7449 32.0215 32.908 31.6567 32.9336C31.0254 32.9769 30.5098 33 30.1111 33C17.3466 33 7 22.6534 7 9.88889C7 9.49022 7.02167 8.97456 7.06644 8.34333C7.09204 7.97853 7.25506 7.63702 7.52261 7.3877C7.79015 7.13839 8.1423 6.99983 8.508 7H13.6156C13.7947 6.99982 13.9676 7.06624 14.1005 7.18636C14.2334 7.30648 14.317 7.47173 14.3349 7.65C14.3681 7.98222 14.3984 8.24656 14.4273 8.44733C14.7144 10.4507 15.3027 12.3991 16.1722 14.2266C16.3094 14.5154 16.2199 14.8607 15.9599 15.0456L12.8428 17.2729C14.7487 21.7138 18.2877 25.2528 22.7286 27.1587L24.953 24.0473C25.0439 23.9202 25.1766 23.8291 25.3278 23.7897C25.4791 23.7504 25.6393 23.7654 25.7807 23.8321C27.6079 24.7 29.5558 25.2868 31.5584 25.5727C31.7592 25.6016 32.0236 25.6333 32.3529 25.6651C32.5309 25.6834 32.6958 25.767 32.8156 25.8999C32.9354 26.0328 33.0017 26.2055 33.0014 26.3844H33Z" fill="#20A3E2"/>
</svg>
