<svg width="160" height="160" viewBox="0 0 160 160" fill="none" xmlns="http://www.w3.org/2000/svg">
<path d="M72 4.6188C76.9504 1.76068 83.0496 1.76068 88 4.6188L141.282 35.3812C146.232 38.2393 149.282 43.5214 149.282 49.2376V110.762C149.282 116.479 146.232 121.761 141.282 124.619L88 155.381C83.0496 158.239 76.9504 158.239 72 155.381L18.718 124.619C13.7675 121.761 10.718 116.479 10.718 110.762V49.2376C10.718 43.5214 13.7675 38.2393 18.718 35.3812L72 4.6188Z" fill="#20A3E2"/>
<path d="M83.5132 43.3333L83.5165 53.54C89.3906 54.2826 94.8507 56.9581 99.037 61.145C103.223 65.332 105.898 70.7925 106.64 76.6666H116.847V83.3333L106.64 83.3366C105.897 89.2102 103.222 94.67 99.0361 98.8562C94.8498 103.043 89.3901 105.717 83.5165 106.46L83.5132 116.667H76.8465V106.46C70.9724 105.718 65.5118 103.043 61.3249 98.8572C57.138 94.6708 54.4625 89.2107 53.7198 83.3366L43.5132 83.3333V76.6666H53.7198C54.4618 70.792 57.137 65.3311 61.324 61.1441C65.511 56.9571 70.9719 54.2819 76.8465 53.54V43.3333H83.5132ZM80.1798 60C74.8755 60 69.7884 62.1071 66.0377 65.8578C62.287 69.6086 60.1798 74.6956 60.1798 80C60.1798 85.3043 62.287 90.3914 66.0377 94.1421C69.7884 97.8928 74.8755 100 80.1798 100C85.4842 100 90.5713 97.8928 94.322 94.1421C98.0727 90.3914 100.18 85.3043 100.18 80C100.18 74.6956 98.0727 69.6086 94.322 65.8578C90.5713 62.1071 85.4842 60 80.1798 60ZM80.1798 73.3333C81.948 73.3333 83.6436 74.0357 84.8939 75.2859C86.1441 76.5362 86.8465 78.2319 86.8465 80C86.8465 81.7681 86.1441 83.4638 84.8939 84.714C83.6436 85.9643 81.948 86.6666 80.1798 86.6666C78.4117 86.6666 76.716 85.9643 75.4658 84.714C74.2156 83.4638 73.5132 81.7681 73.5132 80C73.5132 78.2319 74.2156 76.5362 75.4658 75.2859C76.716 74.0357 78.4117 73.3333 80.1798 73.3333Z" fill="white"/>
</svg>
