<svg width="160" height="160" viewBox="0 0 160 160" fill="none" xmlns="http://www.w3.org/2000/svg">
<path d="M72 4.6188C76.9504 1.76068 83.0496 1.76068 88 4.6188L141.282 35.3812C146.232 38.2393 149.282 43.5214 149.282 49.2376V110.762C149.282 116.479 146.232 121.761 141.282 124.619L88 155.381C83.0496 158.239 76.9504 158.239 72 155.381L18.718 124.619C13.7675 121.761 10.718 116.479 10.718 110.762V49.2376C10.718 43.5214 13.7675 38.2393 18.718 35.3812L72 4.6188Z" fill="#20A3E2"/>
<path d="M58.6189 53H101.381C101.854 52.9999 102.321 53.1119 102.743 53.3267C103.165 53.5415 103.53 53.8531 103.808 54.236L115.277 70.004C115.481 70.2846 115.581 70.6271 115.561 70.9733C115.541 71.3196 115.401 71.6481 115.166 71.903L81.1009 108.806C80.9604 108.958 80.7901 109.079 80.6007 109.162C80.4112 109.245 80.2066 109.287 79.9999 109.287C79.7931 109.287 79.5885 109.245 79.3991 109.162C79.2096 109.079 79.0393 108.958 78.8989 108.806L44.8339 71.906C44.5979 71.6509 44.4579 71.3218 44.4376 70.9749C44.4174 70.628 44.5182 70.2848 44.7229 70.004L56.1919 54.236C56.4702 53.8531 56.8352 53.5415 57.257 53.3267C57.6788 53.1119 58.1455 52.9999 58.6189 53Z" fill="white"/>
</svg>
