<svg width="160" height="160" viewBox="0 0 160 160" fill="none" xmlns="http://www.w3.org/2000/svg">
<path d="M72 4.6188C76.9504 1.76068 83.0496 1.76068 88 4.6188L141.282 35.3812C146.232 38.2393 149.282 43.5214 149.282 49.2376V110.762C149.282 116.479 146.232 121.761 141.282 124.619L88 155.381C83.0496 158.239 76.9504 158.239 72 155.381L18.718 124.619C13.7675 121.761 10.718 116.479 10.718 110.762V49.2376C10.718 43.5214 13.7675 38.2393 18.718 35.3812L72 4.6188Z" fill="#20A3E2"/>
<g clip-path="url(#clip0_332_956)">
<path fill-rule="evenodd" clip-rule="evenodd" d="M72.5367 64.6858C65.8513 60.0047 59.2407 58.972 52.4059 60.7588C53.9006 57.1648 56.1494 54.8073 58.7923 53.6998C62.5359 52.1304 68.6641 53.2446 71.076 56.6009C72.3125 58.313 72.9308 60.854 72.5367 64.6858ZM94.9231 90.5848C94.7397 89.8238 95.2153 89.0629 95.9762 88.8794C96.7371 88.696 97.4981 89.1716 97.6815 89.9325C98.0484 91.4748 98.6802 92.6705 99.5227 93.5334C100.386 94.4098 101.493 94.9737 102.811 95.2319C103.579 95.3814 104.075 96.1219 103.925 96.8896C103.776 97.6574 103.035 98.1533 102.267 98.0039C100.392 97.6302 98.7821 96.8081 97.5117 95.5104C96.2955 94.2739 95.4123 92.6434 94.9231 90.5848ZM47.3783 90.5848C47.1949 89.8238 47.6705 89.0629 48.4314 88.8794C49.1923 88.696 49.9533 89.1716 50.1367 89.9325C50.5036 91.4748 51.1354 92.6705 51.9779 93.5334C52.8407 94.4098 53.9482 94.9737 55.2662 95.2319C56.0339 95.3814 56.5299 96.1219 56.3804 96.8896C56.231 97.6574 55.4904 98.1533 54.7227 98.0039C52.8475 97.6302 51.2373 96.8081 49.9668 95.5104C48.7507 94.2739 47.8675 92.6434 47.3783 90.5848ZM79.8267 85.4145C81.7291 85.4145 83.2713 86.916 83.2713 88.7639C83.2713 90.6119 81.7291 92.1134 79.8267 92.1134C77.9244 92.1134 76.3821 90.6119 76.3821 88.7639C76.3821 86.916 77.9244 85.4145 79.8267 85.4145ZM56.2921 76.4871C63.0862 76.4871 68.5961 81.8408 68.5961 88.4514C68.5961 95.0552 63.0862 100.416 56.2921 100.416C49.4981 100.416 43.9881 95.062 43.9881 88.4514C43.9881 81.8408 49.4913 76.4871 56.2921 76.4871ZM103.837 76.4871C110.631 76.4871 116.141 81.8408 116.141 88.4514C116.141 95.0552 110.631 100.416 103.837 100.416C97.0429 100.416 91.5329 95.062 91.5329 88.4514C91.5329 81.8408 97.0361 76.4871 103.837 76.4871ZM87.307 64.6858C93.9923 60.0047 100.603 58.972 107.431 60.7588C105.936 57.1648 103.687 54.8073 101.045 53.6998C97.301 52.1304 91.1728 53.2446 88.7677 56.6009C87.5312 58.313 86.9129 60.854 87.307 64.6858ZM111.263 64.8217C108.939 62.4302 105.175 61.3499 99.9643 61.5809C94.0603 61.8731 87.8233 64.3393 85.8191 69.9308C84.1409 66.2484 75.7027 66.2484 74.0314 69.9308C72.0271 64.3393 65.7902 61.8663 59.8862 61.5809C54.6751 61.3499 50.918 62.437 48.5877 64.8217C45.3129 69.2107 38.8314 80.679 38.2879 86.2841C36.073 109.031 68.6981 114.738 73.9295 91.2506C76.8985 96.516 82.9452 96.516 85.9142 91.2506C91.1456 114.744 123.771 109.031 121.556 86.2841C121.012 80.679 114.531 69.2107 111.263 64.8217Z" fill="white"/>
</g>
<defs>
<clipPath id="clip0_332_956">
<rect width="83.4853" height="53.3333" fill="white" transform="translate(38.1797 53)"/>
</clipPath>
</defs>
</svg>
